<svg viewBox="0 0 280 90" xmlns="http://www.w3.org/2000/svg">
  <!-- RINGO stylized text logo with swoosh -->
  <g fill="none" stroke="white" stroke-width="2.5">
    <!-- R -->
    <path d="M 22 18 L 22 72 M 22 18 L 22 12 C 22 8 28 8 32 8 L 42 8 C 52 8 56 14 56 22 C 56 30 52 36 42 36 L 22 36 M 42 36 L 56 54"/>
    <!-- I -->
    <path d="M 64 8 L 64 54"/>
    <!-- N -->
    <path d="M 76 54 L 76 8 L 108 54 L 108 8"/>
    <!-- G -->
    <path d="M 138 20 C 132 10 120 6 114 14 C 108 22 108 44 114 52 C 120 60 132 56 138 46 L 138 34 L 126 34"/>
    <!-- O -->
    <ellipse cx="162" cy="31" rx="18" ry="24" />
  </g>

  <!-- Swoosh underneath -->
  <path d="M 18 65 Q 30 55 50 52 T 100 50 T 160 55 Q 180 58 190 70 Q 170 62 140 60 T 80 60 T 30 68 Z" fill="none" stroke="white" stroke-width="2" stroke-linecap="round"/>
</svg>
